<svg width="33" height="33" viewBox="0 0 33 33" fill="none" xmlns="http://www.w3.org/2000/svg">
<path d="M29.7673 27.3282C27.804 23.9341 24.7786 21.5004 21.2479 20.3467C22.9943 19.307 24.3512 17.7227 25.1102 15.8372C25.8691 13.9518 25.9881 11.8693 25.449 9.90957C24.9098 7.94988 23.7423 6.22135 22.1257 4.98944C20.5091 3.75752 18.5327 3.09033 16.5002 3.09033C14.4677 3.09033 12.4914 3.75752 10.8748 4.98944C9.25819 6.22135 8.09065 7.94988 7.55149 9.90957C7.01234 11.8693 7.13137 13.9518 7.89032 15.8372C8.64927 17.7227 10.0062 19.307 11.7526 20.3467C8.22188 21.4991 5.19645 23.9328 3.23321 27.3282C3.16122 27.4456 3.11346 27.5762 3.09277 27.7124C3.07207 27.8485 3.07885 27.9874 3.11271 28.1209C3.14658 28.2544 3.20683 28.3798 3.28992 28.4896C3.37301 28.5994 3.47725 28.6915 3.5965 28.7603C3.71575 28.8292 3.84758 28.8735 3.98423 28.8906C4.12087 28.9077 4.25956 28.8973 4.39211 28.8599C4.52465 28.8226 4.64837 28.759 4.75596 28.6731C4.86356 28.5871 4.95285 28.4805 5.01856 28.3595C7.44716 24.1623 11.7397 21.6563 16.5002 21.6563C21.2608 21.6563 25.5533 24.1623 27.9819 28.3595C28.0476 28.4805 28.1369 28.5871 28.2445 28.6731C28.3521 28.759 28.4758 28.8226 28.6084 28.8599C28.7409 28.8973 28.8796 28.9077 29.0163 28.8906C29.1529 28.8735 29.2847 28.8292 29.404 28.7603C29.5232 28.6915 29.6275 28.5994 29.7106 28.4896C29.7937 28.3798 29.8539 28.2544 29.8878 28.1209C29.9216 27.9874 29.9284 27.8485 29.9077 27.7124C29.887 27.5762 29.8393 27.4456 29.7673 27.3282ZM9.28149 12.3751C9.28149 10.9474 9.70486 9.55168 10.4981 8.36457C11.2913 7.17745 12.4187 6.2522 13.7377 5.70583C15.0568 5.15946 16.5083 5.01651 17.9086 5.29504C19.3089 5.57358 20.5951 6.2611 21.6047 7.27066C22.6142 8.28022 23.3018 9.56648 23.5803 10.9668C23.8588 12.3671 23.7159 13.8185 23.1695 15.1376C22.6231 16.4566 21.6979 17.5841 20.5108 18.3773C19.3236 19.1705 17.928 19.5938 16.5002 19.5938C14.5863 19.5918 12.7514 18.8306 11.3981 17.4773C10.0447 16.1239 9.28354 14.289 9.28149 12.3751Z" fill="#006D86"/>
</svg>
