<svg width="38" height="37" viewBox="0 0 38 37" fill="none" xmlns="http://www.w3.org/2000/svg">
<path d="M17.4039 22.8245C18.9954 21.7928 20.2037 20.2898 20.8501 18.5378C21.4965 16.7857 21.5467 14.8776 20.9932 13.0956C20.4398 11.3137 19.312 9.75245 17.7768 8.64282C16.2415 7.53319 14.3803 6.93408 12.4683 6.93408C10.5563 6.93408 8.69508 7.53319 7.15984 8.64282C5.6246 9.75245 4.49685 11.3137 3.94338 13.0956C3.3899 14.8776 3.44007 16.7857 4.08648 18.5378C4.73289 20.2898 5.94121 21.7928 7.53276 22.8245C4.6538 23.8576 2.1951 25.7695 0.523539 28.2748C0.435688 28.4019 0.374666 28.5448 0.344021 28.6951C0.313376 28.8454 0.313719 29.0001 0.34503 29.1503C0.376341 29.3004 0.437996 29.443 0.526411 29.5698C0.614826 29.6966 0.728236 29.805 0.860051 29.8887C0.991865 29.9724 1.13945 30.0297 1.29424 30.0574C1.44902 30.0851 1.60792 30.0826 1.76168 30.0499C1.91544 30.0173 2.06101 29.9552 2.18993 29.8673C2.31884 29.7794 2.42852 29.6675 2.5126 29.538C3.59084 27.9232 5.06626 26.5963 6.80488 25.6778C8.54349 24.7592 10.4902 24.2781 12.4683 24.2781C14.4464 24.2781 16.3931 24.7592 18.1317 25.6778C19.8704 26.5963 21.3458 27.9232 22.424 29.538C22.5982 29.79 22.8672 29.9652 23.173 30.0256C23.4788 30.0861 23.7967 30.0269 24.058 29.861C24.3193 29.695 24.5031 29.4356 24.5695 29.1387C24.636 28.8419 24.5798 28.5316 24.4131 28.2748C22.7415 25.7695 20.2828 23.8576 17.4039 22.8245ZM5.93705 15.6095C5.93705 14.3517 6.32011 13.1222 7.03777 12.0764C7.75543 11.0306 8.77547 10.2155 9.9689 9.73418C11.1623 9.25285 12.4756 9.12692 13.7425 9.37229C15.0094 9.61767 16.1732 10.2233 17.0866 11.1127C18 12.0021 18.622 13.1352 18.8741 14.3688C19.1261 15.6024 18.9967 16.8811 18.5024 18.0431C18.0081 19.2051 17.1709 20.1983 16.0969 20.8971C15.0228 21.5959 13.7601 21.9689 12.4683 21.9689C10.7367 21.9669 9.0766 21.2963 7.85218 20.1041C6.62776 18.9119 5.93902 17.2955 5.93705 15.6095ZM37.1297 29.8747C36.8659 30.0422 36.5446 30.1008 36.2365 30.0376C35.9283 29.9745 35.6586 29.7948 35.4865 29.538C34.4096 27.9223 32.9343 26.5948 31.1954 25.6766C29.4564 24.7584 27.509 24.2788 25.5308 24.2814C25.2159 24.2814 24.9138 24.1595 24.6911 23.9427C24.4684 23.7259 24.3433 23.4318 24.3433 23.1251C24.3433 22.8184 24.4684 22.5243 24.6911 22.3075C24.9138 22.0907 25.2159 21.9689 25.5308 21.9689C26.4926 21.968 27.4424 21.7602 28.3122 21.3605C29.182 20.9608 29.9505 20.379 30.5626 19.6566C31.1747 18.9342 31.6154 18.0891 31.8532 17.1817C32.0909 16.2742 32.12 15.3268 31.9381 14.4072C31.7563 13.4876 31.3681 12.6184 30.8012 11.8618C30.2344 11.1052 29.503 10.4798 28.6591 10.0303C27.8153 9.58087 26.88 9.31843 25.9199 9.26176C24.9598 9.20508 23.9987 9.35558 23.1053 9.70248C22.9597 9.7638 22.8029 9.79606 22.6442 9.79737C22.4855 9.79867 22.3281 9.76899 22.1814 9.71009C22.0347 9.65118 21.9016 9.56424 21.79 9.4544C21.6784 9.34455 21.5905 9.21405 21.5316 9.07058C21.4726 8.92711 21.4438 8.7736 21.4468 8.6191C21.4499 8.46461 21.4847 8.31228 21.5492 8.17111C21.6137 8.02993 21.7066 7.90278 21.8225 7.79716C21.9383 7.69155 22.0747 7.60961 22.2236 7.55619C24.2683 6.76221 26.5425 6.73364 28.6075 7.47599C30.6726 8.21834 32.3821 9.67901 33.4063 11.5762C34.4305 13.4734 34.6969 15.6727 34.154 17.7499C33.6111 19.827 32.2974 21.6348 30.4664 22.8245C33.3453 23.8576 35.804 25.7695 37.4756 28.2748C37.6476 28.5316 37.7078 28.8444 37.6429 29.1445C37.5781 29.4445 37.3935 29.7072 37.1297 29.8747Z" fill="#006D86"/>
</svg>
