<svg width="28" height="33" viewBox="0 0 28 33" fill="none" xmlns="http://www.w3.org/2000/svg">
<path d="M20.3636 20.7777C20.3636 21.1019 20.2295 21.4127 19.9909 21.6419C19.7522 21.8712 19.4285 21.9999 19.0909 21.9999H8.90909C8.57154 21.9999 8.24782 21.8712 8.00914 21.6419C7.77045 21.4127 7.63636 21.1019 7.63636 20.7777C7.63636 20.4535 7.77045 20.1427 8.00914 19.9134C8.24782 19.6842 8.57154 19.5555 8.90909 19.5555H19.0909C19.4285 19.5555 19.7522 19.6842 19.9909 19.9134C20.2295 20.1427 20.3636 20.4535 20.3636 20.7777ZM19.0909 14.6665H8.90909C8.57154 14.6665 8.24782 14.7953 8.00914 15.0245C7.77045 15.2537 7.63636 15.5646 7.63636 15.8888C7.63636 16.2129 7.77045 16.5238 8.00914 16.753C8.24782 16.9822 8.57154 17.111 8.90909 17.111H19.0909C19.4285 17.111 19.7522 16.9822 19.9909 16.753C20.2295 16.5238 20.3636 16.2129 20.3636 15.8888C20.3636 15.5646 20.2295 15.2537 19.9909 15.0245C19.7522 14.7953 19.4285 14.6665 19.0909 14.6665ZM28 4.8887V30.5555C28 31.2039 27.7318 31.8256 27.2545 32.284C26.7771 32.7425 26.1296 33 25.4545 33H2.54545C1.87036 33 1.22291 32.7425 0.745546 32.284C0.268181 31.8256 0 31.2039 0 30.5555V4.8887C0 4.24039 0.268181 3.61863 0.745546 3.16021C1.22291 2.70178 1.87036 2.44424 2.54545 2.44424H8.31409C9.02921 1.67534 9.90537 1.06015 10.8852 0.638941C11.865 0.217732 12.9265 0 14 0C15.0735 0 16.135 0.217732 17.1148 0.638941C18.0946 1.06015 18.9708 1.67534 19.6859 2.44424H25.4545C26.1296 2.44424 26.7771 2.70178 27.2545 3.16021C27.7318 3.61863 28 4.24039 28 4.8887ZM8.90909 7.33316H19.0909C19.0909 6.03654 18.5545 4.79302 17.5998 3.87617C16.6451 2.95932 15.3502 2.44424 14 2.44424C12.6498 2.44424 11.3549 2.95932 10.4002 3.87617C9.44545 4.79302 8.90909 6.03654 8.90909 7.33316ZM25.4545 4.8887H21.1989C21.4884 5.6737 21.6363 6.50038 21.6364 7.33316V8.55539C21.6364 8.87955 21.5023 9.19043 21.2636 9.41964C21.0249 9.64885 20.7012 9.77762 20.3636 9.77762H7.63636C7.29882 9.77762 6.97509 9.64885 6.73641 9.41964C6.49773 9.19043 6.36364 8.87955 6.36364 8.55539V7.33316C6.36367 6.50038 6.51162 5.6737 6.80114 4.8887H2.54545V30.5555H25.4545V4.8887Z" fill="#006D86"/>
</svg>
